<svg width="500" height="524" viewBox="0 0 500 524" fill="none" xmlns="http://www.w3.org/2000/svg">
<path d="M0 100C0 44.7715 44.7715 0 100 0H400C455.228 0 500 44.7715 500 100V400C500 455.228 455.228 500 400 500H100C44.7715 500 0 455.228 0 400V100Z" fill="url(#paint0_linear_561_292)"/>
<path d="M194.7 314C196.7 319.6 198.9 324.1 201.3 327.5C203.7 330.7 207.4 334.2 212.4 338L209.7 341H155.4L153.6 335.6L158.1 334.4C161.1 333.4 163.2 332.2 164.4 330.8C165.8 329.2 166.5 327.1 166.5 324.5C166.5 322.9 165.4 318.8 163.2 312.2L157.2 294.5H110.7L108.3 302C105.3 311 103.8 317.8 103.8 322.4C103.8 326.8 104.6 330.8 106.2 334.4L108.3 338L105.6 341H72.6L70.5 335.6L75 334.4C79.8 333 83.4 331.1 85.8 328.7C88.2 326.1 90.5 321.6 92.7 315.2L123.3 227C124.7 222 125.4 218.5 125.4 216.5C125.4 212.1 122.2 209 115.8 207.2L112.5 206.3L114.6 200.9H155.4L194.7 314ZM154.2 286.1L133.8 225.2L113.7 286.1H154.2ZM253.732 274.7C249.532 277.1 244.532 278.3 238.732 278.3C234.532 278.3 231.232 277.1 228.832 274.7C226.432 272.1 225.232 268.5 225.232 263.9C225.232 257.1 228.532 251.7 235.132 247.7C241.932 243.5 250.732 241.4 261.532 241.4C274.332 241.4 284.332 244.2 291.532 249.8C298.932 255.4 302.632 263 302.632 272.6V324.5C302.632 330.1 304.632 332.9 308.632 332.9C312.432 332.9 316.132 331.4 319.732 328.4L322.132 331.4C314.732 339.6 305.932 343.7 295.732 343.7C289.732 343.7 285.132 342.2 281.932 339.2C278.932 336.2 277.132 331.5 276.532 325.1H275.332C272.132 330.9 267.832 335.5 262.432 338.9C257.232 342.1 251.232 343.7 244.432 343.7C236.832 343.7 230.732 341.4 226.132 336.8C221.532 332 219.232 325.8 219.232 318.2C219.232 309.6 223.332 302.8 231.532 297.8C239.732 292.8 250.832 290.3 264.832 290.3C267.432 290.3 271.132 290.5 275.932 290.9V275.9C275.932 266.1 274.732 259.1 272.332 254.9C269.932 250.5 266.032 248.3 260.632 248.3C256.832 248.3 253.832 249.5 251.632 251.9C249.432 254.3 248.332 257.4 248.332 261.2C248.332 267.2 250.132 271.7 253.732 274.7ZM258.232 328.7C270.032 328.7 275.932 318 275.932 296.6C265.932 296.6 258.432 298.3 253.432 301.7C248.432 304.9 245.932 309.5 245.932 315.5C245.932 319.5 247.032 322.7 249.232 325.1C251.432 327.5 254.432 328.7 258.232 328.7Z" fill="white"/>
<path fill-rule="evenodd" clip-rule="evenodd" d="M418 0H322V258H322.056L370.056 191.698L418 257.923V0Z" fill="url(#paint1_linear_561_292)"/>
<defs>
<linearGradient id="paint0_linear_561_292" x1="500" y1="500" x2="0" y2="0" gradientUnits="userSpaceOnUse">
<stop stop-color="#FF2D2D"/>
<stop offset="1" stop-color="#FF8E8E" stop-opacity="0.71"/>
</linearGradient>
<linearGradient id="paint1_linear_561_292" x1="370" y1="192.592" x2="370" y2="3.63379" gradientUnits="userSpaceOnUse">
<stop stop-color="white"/>
<stop offset="1" stop-color="white" stop-opacity="0.49"/>
</linearGradient>
</defs>
</svg>
